<svg width="43" height="38" viewBox="0 0 43 38" fill="none" xmlns="http://www.w3.org/2000/svg">
<path d="M2.33259 21.8179C2.51767 21.9474 2.69905 22.077 2.86659 22.2065C3.38462 22.5097 3.99344 22.6204 4.5855 22.5192C4.69525 22.5141 4.8035 22.5091 4.90675 22.5078C7.21558 22.4737 9.5244 22.4347 11.8333 22.3911C13.5169 22.3605 15.201 22.331 16.8852 22.3029C17.68 22.2906 18.4743 22.294 19.2776 22.2972H19.862C20.0322 23.2369 20.1868 24.1596 20.3459 25.0687C20.7869 27.6487 21.2038 30.0855 21.833 32.5282C22.2811 34.2708 23.0122 37.1156 25.5858 37.115C25.7684 37.1145 25.9506 37.1011 26.1312 37.0748C29.2899 36.6261 29.0847 33.0212 28.9977 31.4819C28.8678 29.1623 28.5567 26.8497 28.2287 24.4012C28.1112 23.5289 27.9918 22.636 27.8762 21.7138L28.212 21.6626C28.8874 21.559 29.533 21.4598 30.1811 21.384C31.0994 21.2752 32.0196 21.1777 32.9404 21.0812C34.7529 20.8869 36.6279 20.6926 38.465 20.4051C39.6742 20.216 42.5056 19.7729 42.366 16.7539C42.2303 13.7861 39.6275 13.7278 38.0715 13.6922C37.0974 13.6734 36.1168 13.6921 35.1677 13.7102C34.5767 13.7218 33.9858 13.7342 33.3942 13.7362C31.6408 13.7426 29.8938 13.7409 28.0417 13.7402H26.1312C26.0334 13.0098 25.9367 12.2779 25.8411 11.5449C25.5534 9.35024 25.2566 7.08184 24.9104 4.85159C24.8663 4.56666 24.8385 4.26152 24.8093 3.95068C24.6618 2.38289 24.4389 0.0128941 21.6647 0.00641834H21.6542C21.2431 -0.0201971 20.831 0.0361405 20.4423 0.172132C20.0536 0.308058 19.6961 0.520658 19.3917 0.797562C18.5066 1.68863 18.5223 3.04861 18.536 4.24857C18.5399 4.57818 18.5436 4.89621 18.5261 5.18956C18.3839 7.52084 18.4125 9.82757 18.4424 12.2696C18.4528 13.0985 18.4632 13.9396 18.4665 14.7951C18.345 14.8087 18.2215 14.8216 18.0961 14.8365C17.3441 14.9188 16.5248 15.0087 15.7046 15.0696C13.075 15.2613 10.4449 15.4468 7.81478 15.6264L3.43131 15.9322C2.88016 15.9307 2.33506 16.0438 1.83028 16.2645C1.32556 16.4851 0.872473 16.8085 0.500105 17.2137C0.282425 17.5045 0.130464 17.8389 0.0549389 18.1939C-0.0206516 18.5489 -0.0182488 18.9161 0.0622122 19.27C0.258981 20.3365 1.35849 21.1231 2.33259 21.8179Z" fill="#714B67"/>
</svg>
