<svg width="200" height="200" viewBox="0 0 200 200" fill="none" xmlns="http://www.w3.org/2000/svg">
<path d="M156.219 79.3152C153.941 79.3513 152.599 78.7462 151.784 77.1664C151.008 75.6647 151.515 74.3172 152.34 73.0747C152.772 72.4193 153.336 71.8606 153.996 71.4339C157.498 69.2345 160.988 67.0029 164.603 65.0017C165.8 64.4177 167.14 64.1899 168.463 64.3454C169.076 64.4153 169.663 64.6292 170.178 64.9696C170.692 65.3099 171.119 65.7672 171.423 66.304C171.727 66.8408 171.9 67.4419 171.928 68.0582C171.955 68.6745 171.836 69.2885 171.581 69.8501C170.936 71.2691 169.915 72.484 168.627 73.3622C165.39 75.326 161.964 76.9859 158.568 78.6746C157.814 78.9843 157.025 79.1996 156.219 79.3152Z" fill="#FBB130"/>
<path d="M49.9861 84.056C49.2641 83.6491 47.6286 83.0768 46.4774 81.9886C44.624 80.1995 42.9417 78.2412 41.4525 76.1392C40.6584 75.0697 40.2033 73.7868 40.1456 72.456C40.1725 70.0276 42.7303 68.2757 45.3182 69.1414C47.4657 69.8047 49.4609 70.8858 51.189 72.3228C52.9172 73.7599 54.3441 75.5245 55.3878 77.5151C57.133 80.9228 54.7281 84.1663 49.9861 84.056Z" fill="#FBB130"/>
<path d="M142.819 35.3478C146.261 35.3268 148.332 37.9016 147.651 40.607C147.463 41.4838 147.059 42.2998 146.476 42.9809C144.145 45.3884 141.793 47.7946 139.256 49.9782C138.025 51.0375 136.47 51.829 134.6 51.1989C132.423 50.4652 131.372 48.6747 132.079 46.5068C132.261 45.8575 132.567 45.2495 132.98 44.7163C135.17 42.1782 137.33 39.6028 139.692 37.2308C140.663 36.2554 142.113 35.758 142.819 35.3478Z" fill="#FBB130"/>
<path d="M81.6737 48.0434C81.4768 50.0321 80.6453 51.5043 78.8515 52.37C77.1739 53.1787 75.722 52.6233 74.5563 51.4695C72.0246 49.0698 70.1216 46.0844 69.015 42.7762C68.2766 40.4377 68.971 38.4832 70.665 37.4324C72.4666 36.3167 74.4251 36.4734 76.1362 38.3052C78.7465 41.1039 80.936 44.2091 81.6737 48.0434Z" fill="#FBB130"/>
<path d="M181.193 99.8181C181.141 98.1287 180.842 96.4561 180.303 94.8542C179.52 92.7297 178.11 91.2864 176.344 90.8013C174.556 90.3084 172.587 90.8414 170.799 92.2912C169.451 93.384 168.129 94.5779 166.854 95.7311C166.329 96.203 165.804 96.6821 165.279 97.1474L158.278 103.372C152.566 108.451 146.849 113.529 141.128 118.607C140.718 118.951 140.285 119.266 139.833 119.551C139.65 119.673 139.462 119.794 139.273 119.929C139.145 120.017 138.999 120.074 138.846 120.096C138.693 120.119 138.537 120.107 138.389 120.061C138.24 120.015 138.105 119.935 137.992 119.827C137.88 119.719 137.794 119.587 137.742 119.44C136.467 115.953 135.227 112.483 133.985 109.027C131.229 101.348 128.374 93.4011 125.387 85.7128C121.226 75.0144 116.761 64.6364 112.567 55.0125C111.472 52.6866 109.984 50.5672 108.169 48.7471C106.537 47.0407 104.75 46.9127 102.382 48.3494C100.454 49.5092 99.6308 51.5189 98.7605 53.6434L98.6797 53.8403C97.8101 55.9445 96.9496 58.0533 96.097 60.1667C93.4867 66.5739 90.7892 73.2101 87.9229 79.6442C83.5911 89.3757 78.9055 99.1486 74.4746 108.326C72.9709 111.442 71.332 114.436 69.5986 117.606C68.811 119.05 68.007 120.519 67.2043 122.03C67.1396 122.154 67.0502 122.262 66.9417 122.349C66.8331 122.435 66.7078 122.499 66.5736 122.535C66.4394 122.571 66.2991 122.579 66.1617 122.559C66.0242 122.538 65.8925 122.489 65.7748 122.415L62.9283 120.627C61.1207 119.501 59.4753 118.476 57.8364 117.437C55.53 115.981 53.2235 114.522 50.9166 113.06C46.3984 110.194 41.8754 107.339 37.3475 104.495C36.3323 103.752 35.129 103.308 33.8742 103.214C32.95 103.243 32.068 103.608 31.3926 104.239C29.4025 105.871 28.8427 107.888 29.6861 110.409C30.2256 112.034 30.9541 113.653 31.6551 115.224L31.6892 115.29C32.2557 116.565 32.8759 117.853 33.4692 119.1C34.5889 121.454 35.7559 123.892 36.6932 126.386C37.2934 127.964 37.896 129.544 38.5007 131.127C42.3652 141.25 46.3577 151.717 48.968 162.494C49.8514 166.15 51.9622 168.126 55.4217 168.537C56.3728 168.652 57.3251 168.773 58.2683 168.895C62.1489 169.479 66.0656 169.793 69.9898 169.832C78.9055 169.718 87.9695 169.387 96.7376 169.07C100.595 168.928 104.45 168.794 108.304 168.666C114.63 168.463 120.956 168.269 127.282 168.086L134.546 167.863C135.133 167.849 135.719 167.829 136.313 167.816C136.953 167.802 137.601 167.782 138.248 167.762C140.494 167.696 142.74 167.606 144.986 167.526C150.499 167.324 156.188 167.114 161.799 167.081C164.389 167.067 166.217 166.162 167.559 164.241C168.484 162.831 169.187 161.287 169.643 159.662L170.372 157.274C173.345 147.536 176.414 137.459 178.221 127.263C178.397 126.271 178.579 125.286 178.754 124.295C180.194 116.328 181.691 108.073 181.193 99.8181Z" fill="#FBB130"/>
<path d="M145.219 73.3152C142.941 73.3513 141.599 72.7462 140.784 71.1664C140.008 69.6647 140.515 68.3172 141.34 67.0747C141.772 66.4193 142.336 65.8606 142.996 65.4339C146.498 63.2345 149.988 61.0029 153.603 59.0017C154.8 58.4177 156.14 58.1899 157.463 58.3454C158.076 58.4153 158.663 58.6292 159.178 58.9696C159.692 59.3099 160.119 59.7672 160.423 60.304C160.727 60.8408 160.9 61.4419 160.928 62.0582C160.955 62.6745 160.836 63.2885 160.581 63.8501C159.936 65.2691 158.915 66.484 157.627 67.3622C154.39 69.326 150.964 70.9859 147.568 72.6746C146.814 72.9843 146.025 73.1996 145.219 73.3152Z" fill="#111827"/>
<path d="M38.9861 78.056C38.2641 77.6491 36.6286 77.0768 35.4774 75.9886C33.624 74.1995 31.9417 72.2412 30.4525 70.1392C29.6584 69.0697 29.2033 67.7868 29.1456 66.456C29.1725 64.0276 31.7303 62.2757 34.3182 63.1414C36.4657 63.8047 38.4609 64.8858 40.189 66.3228C41.9172 67.7599 43.3441 69.5245 44.3878 71.5151C46.133 74.9228 43.7281 78.1663 38.9861 78.056Z" fill="#111827"/>
<path d="M131.819 29.3478C135.261 29.3268 137.332 31.9016 136.651 34.607C136.463 35.4838 136.059 36.2998 135.476 36.9809C133.145 39.3884 130.793 41.7946 128.256 43.9782C127.025 45.0375 125.47 45.829 123.6 45.1989C121.423 44.4652 120.372 42.6747 121.079 40.5068C121.261 39.8575 121.567 39.2495 121.98 38.7163C124.17 36.1782 126.33 33.6028 128.692 31.2308C129.663 30.2554 131.113 29.758 131.819 29.3478Z" fill="#111827"/>
<path d="M70.6737 42.0434C70.4768 44.0321 69.6453 45.5043 67.8515 46.37C66.1739 47.1787 64.722 46.6233 63.5563 45.4695C61.0246 43.0698 59.1216 40.0844 58.015 36.7762C57.2766 34.4377 57.971 32.4832 59.665 31.4324C61.4666 30.3167 63.4251 30.4734 65.1362 32.3052C67.7465 35.1039 69.936 38.2091 70.6737 42.0434Z" fill="#111827"/>
<path d="M170.193 93.8181C170.141 92.1287 169.842 90.4561 169.303 88.8542C168.52 86.7297 167.11 85.2864 165.344 84.8013C163.556 84.3084 161.587 84.8414 159.799 86.2912C158.451 87.384 157.129 88.5779 155.854 89.7311C155.329 90.203 154.804 90.6821 154.279 91.1474L147.278 97.3719C141.566 102.451 135.849 107.529 130.128 112.607C129.718 112.951 129.285 113.266 128.833 113.551C128.65 113.673 128.462 113.794 128.273 113.929C128.145 114.017 127.999 114.074 127.846 114.096C127.693 114.119 127.537 114.107 127.389 114.061C127.24 114.015 127.105 113.935 126.992 113.827C126.88 113.719 126.794 113.587 126.742 113.44C125.467 109.953 124.227 106.483 122.985 103.027C120.229 95.3478 117.374 87.4011 114.387 79.7128C110.226 69.0144 105.761 58.6364 101.567 49.0125C100.472 46.6866 98.9845 44.5672 97.1691 42.7471C95.5367 41.0407 93.7495 40.9127 91.3821 42.3494C89.4538 43.5092 88.6308 45.5189 87.7605 47.6434L87.6797 47.8403C86.8101 49.9445 85.9496 52.0533 85.097 54.1667C82.4867 60.5739 79.7892 67.2101 76.9229 73.6442C72.5911 83.3757 67.9055 93.1486 63.4746 102.326C61.9709 105.442 60.332 108.436 58.5986 111.606C57.811 113.05 57.007 114.519 56.2043 116.03C56.1396 116.154 56.0502 116.262 55.9417 116.349C55.8331 116.435 55.7078 116.499 55.5736 116.535C55.4394 116.571 55.2991 116.579 55.1617 116.559C55.0242 116.538 54.8925 116.489 54.7748 116.415L51.9283 114.627C50.1207 113.501 48.4753 112.476 46.8364 111.437C44.53 109.981 42.2235 108.522 39.9166 107.06C35.3984 104.194 30.8754 101.339 26.3475 98.4949C25.3323 97.7519 24.129 97.3076 22.8742 97.2137C21.95 97.2433 21.068 97.6075 20.3926 98.2389C18.4025 99.8706 17.8427 101.888 18.6861 104.409C19.2256 106.034 19.9541 107.653 20.6551 109.224L20.6892 109.29C21.2557 110.565 21.8759 111.853 22.4692 113.1C23.5889 115.454 24.7559 117.892 25.6931 120.386C26.2934 121.964 26.896 123.544 27.5007 125.127C31.3652 135.25 35.3577 145.717 37.968 156.494C38.8514 160.15 40.9622 162.126 44.4217 162.537C45.3728 162.652 46.3251 162.773 47.2683 162.895C51.1489 163.479 55.0656 163.793 58.9898 163.832C67.9055 163.718 76.9695 163.387 85.7376 163.07C89.5949 162.928 93.4502 162.794 97.3036 162.666C103.63 162.463 109.956 162.269 116.282 162.086L123.546 161.863C124.133 161.849 124.719 161.829 125.313 161.816C125.953 161.802 126.601 161.782 127.248 161.762C129.494 161.696 131.74 161.606 133.986 161.526C139.499 161.324 145.188 161.114 150.799 161.081C153.389 161.067 155.217 160.162 156.559 158.241C157.484 156.831 158.187 155.287 158.643 153.662L159.372 151.274C162.345 141.536 165.414 131.459 167.221 121.263C167.397 120.271 167.579 119.286 167.754 118.295C169.194 110.328 170.691 102.073 170.193 93.8181ZM147.714 149.384C147.649 149.562 147.536 149.717 147.387 149.834C147.238 149.95 147.059 150.021 146.871 150.04C146.062 150.128 145.225 150.229 144.382 150.33C142.454 150.567 140.451 150.81 138.427 150.897C135.109 151.039 131.737 151.14 128.479 151.225C124.136 151.356 119.644 151.481 115.24 151.724C110.108 152.014 104.888 152.439 99.843 152.85C96.9433 153.086 94.0429 153.323 91.1432 153.531C86.9079 153.842 83.3734 154.091 79.6914 154.206C70.6201 154.496 61.4006 154.731 52.4849 154.962L48.0677 155.076H47.966C47.5557 155.067 47.1472 155.019 46.7458 154.934C46.6106 154.907 46.4761 154.88 46.3474 154.868C46.156 154.842 45.9762 154.761 45.8291 154.636C45.6821 154.51 45.5741 154.345 45.5178 154.16L33.8035 116.055C33.7413 115.859 33.741 115.648 33.8028 115.451C33.8645 115.254 33.9853 115.081 34.1486 114.955C34.312 114.829 34.5101 114.756 34.7162 114.747C34.9222 114.737 35.1262 114.791 35.3006 114.901L36.8181 115.839C37.8229 116.46 38.7471 117.026 39.6574 117.606C40.9521 118.429 42.2471 119.248 43.5423 120.061C46.7524 122.091 50.0774 124.182 53.281 126.353C55.3307 127.743 57.1252 128.276 58.6019 127.938C60.0459 127.61 61.3198 126.468 62.4868 124.452L63.5369 122.651C65.5197 119.252 67.5701 115.731 69.2759 112.149C74.9205 100.253 80.5794 88.1132 86.0494 76.3713C88.2074 71.738 90.3701 67.1047 92.5373 62.4714C92.7191 62.0776 92.9081 61.6955 93.1779 61.1632L93.697 60.1177C93.7804 59.9421 93.9143 59.7954 94.081 59.6958C94.2484 59.5961 94.4407 59.5483 94.6349 59.5579C94.8286 59.5627 95.0169 59.623 95.1771 59.7318C95.3372 59.8406 95.4626 59.9932 95.5381 60.1715C96.3342 62.0466 97.1369 63.8607 97.9258 65.6414C99.6389 69.5138 101.257 73.1677 102.64 76.9647C105.803 85.6716 108.898 94.5544 111.9 103.152C113.62 108.076 115.346 113.002 117.08 117.929C117.936 120.442 118.936 122.903 120.074 125.3C120.448 126.175 121.022 126.95 121.752 127.561C122.48 128.173 123.342 128.604 124.269 128.821C126.083 129.179 127.999 128.551 129.671 127.061C132.214 124.795 134.743 122.508 137.272 120.229C139.491 118.226 141.709 116.227 143.929 114.233C146.754 111.712 149.589 109.195 152.433 106.685L156.239 103.32C156.38 103.196 156.551 103.112 156.736 103.079C156.92 103.046 157.11 103.064 157.285 103.131L157.986 103.408C158.201 103.492 158.381 103.646 158.496 103.846C158.611 104.046 158.655 104.279 158.62 104.507C156.549 117.726 153.635 133.4 147.714 149.384Z" fill="#111827"/>
</svg>
