<svg width="1043" height="58" viewBox="0 0 1043 58" fill="none" xmlns="http://www.w3.org/2000/svg">
<path d="M260.013 51.2463C314.803 51.5037 369.594 52.0184 424.313 52.619L424.384 52.5332C431.797 52.619 481.504 50.3883 497.955 49.1014C498.873 49.0156 509.605 51.6753 511.652 51.8468C526.339 52.9622 540.954 53.7343 555.64 53.9917C665.996 55.9649 776.283 48.5867 886.71 56.7371C935.499 60.3404 984.852 55.1928 1033.92 54.1633C1039.99 54.0775 1042.68 50.6457 1042.68 43.5249C1042.75 35.975 1042.89 28.4251 1042.96 20.8753C1043.17 3.96892 1043.03 3.97224 1029.25 4.30714L1028.84 4.31712C973.838 5.68982 918.765 7.14831 863.763 7.83466C846.818 8.09204 829.943 5.00347 812.998 5.00347C724.317 4.91768 635.707 5.26085 547.026 5.77561C543.778 5.86141 454.109 4.91768 449.025 4.91768C317.487 4.23133 204.152 2.77272 72.6133 3.0301L72 49.702C189.206 49.4446 142.808 50.5599 260.013 51.2463Z" fill="#00CEB3"/>
<path d="M75.9755 4.45992L66.4221 4.45982L67.7593 8.0252L54.5198 12.9206L55.9261 14.9876L62.3501 16.7854L69.3657 16.6083L70.2725 18.6522L65.1857 20.4198L64.0947 22.3717L66.5229 23.9852L69.9271 26.1443L68.836 28.0961L59.254 29.6564L56.6646 31.5392L58.0478 34.1056L69.4435 36.6331L69.8509 38.6541L64.2185 41.3975L63.9882 46.3922L75.9755 46.9449L82.377 46.3922L75.9755 4.45992Z" fill="#00CEB3"/>
<path d="M28.5725 34.0496C28.1051 33.9541 27.6324 33.8862 27.1571 33.8462C23.8527 33.7773 20.5445 33.801 17.2437 33.6538C13.8345 33.5013 10.4268 33.241 7.02955 32.9159C6.01691 32.7618 5.03258 32.4567 4.11014 32.0108C3.55023 31.7862 3.04404 31.4458 2.62457 31.0121C2.20509 30.5783 1.88192 30.0609 1.67582 29.4937C0.772182 27.0623 0.788863 24.3844 1.72298 21.9645C2.44903 20.0406 3.96068 18.8309 5.99712 18.767C9.17554 18.6646 12.3676 18.7303 15.5443 18.9032C18.9557 19.0888 22.3554 19.4842 25.7612 19.778C26.3707 19.8308 26.9837 19.838 27.8468 19.8778C27.8872 19.0011 27.8848 18.3366 27.9548 17.6805C28.2315 15.1382 28.3303 12.5544 28.873 10.068C29.654 6.48188 32.0235 4.33271 35.714 3.82848C37.3474 3.60547 38.9991 3.50411 40.6461 3.39718C43.4829 3.21298 46.3226 2.9248 49.16 2.93516C56.1663 2.96121 63.1755 3.13122 70.1834 3.2451C71.8352 3.27221 73.4909 3.25178 75.1372 3.36306C75.7967 3.45138 76.4349 3.65794 77.0211 3.97281C78.4909 4.66191 78.8247 5.83986 78.7905 7.44267C78.6801 12.6241 78.8184 17.8103 78.7433 22.993C78.6682 28.1757 78.452 33.3549 78.2972 38.5356C78.2308 40.7576 78.1854 42.9802 78.0901 45.1998C78.0017 47.2249 77.4107 48.0075 75.37 48.2498C72.9977 48.5555 70.6071 48.6969 68.2153 48.6727C60.9722 48.5233 53.7437 48.5754 46.5399 49.4482C46.0307 49.5125 45.5173 49.5362 45.0044 49.5189C42.4502 49.4152 39.8965 49.2921 37.3431 49.1697C36.9435 49.1513 36.5482 49.0997 36.1506 49.0657C32.8731 48.7784 30.8215 46.992 29.849 43.8976C29.0509 41.2761 28.6406 38.5519 28.6304 35.8119C28.6176 35.2504 28.5926 34.6923 28.5725 34.0496ZM69.0322 38.0267C67.1854 37.074 65.4968 37.1429 63.9075 36.7864C62.025 36.3639 60.1007 36.0005 58.32 35.2941C56.1126 34.4188 55.5941 32.1752 56.8872 30.1823C57.2199 29.6454 57.6636 29.1858 58.1883 28.8343C58.7131 28.4827 59.3069 28.2473 59.93 28.1439C61.6082 27.8676 63.3174 27.7722 65.0142 27.6192C66.0325 27.5274 67.0629 27.5288 68.069 27.37C68.251 27.3171 68.4171 27.2202 68.5528 27.0879C68.6885 26.9556 68.7895 26.7919 68.847 26.6113C68.8829 26.3697 68.4855 25.9273 68.1838 25.7979C67.2455 25.393 66.2548 25.1104 65.2957 24.7488C64.2882 24.3687 63.4733 23.8109 63.3933 22.5872C63.3099 21.3347 63.7324 20.2984 64.8196 19.6908C65.5494 19.2834 66.4039 19.0965 67.2073 18.8239C67.752 18.6395 68.3047 18.4787 68.8539 18.3075L68.7978 17.8378C67.872 17.6252 66.933 17.4747 65.9872 17.3872C64.1096 17.3276 62.2204 17.5082 60.3504 17.3772C58.7125 17.2565 57.0902 16.9769 55.5064 16.5422C54.9398 16.418 54.4273 16.1172 54.0424 15.6832C53.6576 15.2492 53.4203 14.7044 53.3647 14.127C53.2203 12.7339 54.0286 11.7704 55.1442 11.2676C56.4948 10.6785 57.9077 10.2444 59.3559 9.97355C60.9152 9.66437 62.5265 9.62924 64.1055 9.40473C64.9207 9.28882 65.8287 9.26725 66.3403 8.44794C65.6615 6.66112 65.4382 6.45365 63.8151 6.44722C61.0794 6.4363 58.3446 6.45246 55.6108 6.4957C53.1613 6.53759 50.7126 6.63491 48.2636 6.71587C46.7901 6.76472 46.6424 6.91311 46.4998 8.40613C46.4892 8.51943 46.4834 8.63361 46.4798 8.74757C46.306 14.1019 46.0528 19.4553 45.9797 24.8109C45.8895 31.3057 45.948 37.8026 45.9519 44.297C45.9801 44.6991 46.0352 45.099 46.1169 45.4939C51.4757 45.3676 56.7351 45.2437 62.0572 45.1183C61.9484 43.0778 62.4821 41.4377 63.6775 40.0376C64.9781 38.5145 67.0574 38.9608 69.0319 38.0257L69.0322 38.0267ZM43.6785 6.49212C41.1387 6.54473 38.6098 6.83774 36.1255 7.36721C34.0666 7.80852 32.7851 8.99172 32.2731 11.0143C32.0919 11.6715 31.9606 12.3414 31.8804 13.0183C31.6491 15.3999 31.4604 17.7854 31.256 20.1695C31.1381 21.5549 30.3869 22.3738 29.0228 22.5692C27.96 22.7631 26.8828 22.8669 25.8027 22.8796C21.6467 22.7617 17.4938 22.5278 13.3378 22.4089C11.2907 22.3506 9.23442 22.3886 7.19139 22.5086C6.50111 22.5495 5.61024 22.7868 5.20035 23.2671C4.25515 24.3787 4.32611 25.7995 4.62727 27.1781C4.88352 28.3512 5.83622 28.6834 6.81355 28.7569C10.2161 29.0122 13.6226 29.2747 17.0299 29.3614C21.1295 29.4649 25.2315 29.3768 29.3324 29.409C29.9569 29.4199 30.5755 29.5367 31.1614 29.7543C32.3354 30.1869 32.7624 31.0581 32.634 32.3162C32.5745 32.9845 32.5735 33.6567 32.6308 34.3252C32.715 35.4603 32.8103 36.5982 32.9824 37.7224C33.2234 39.5801 33.5575 41.4241 33.9839 43.2484C34.1609 43.9339 34.7758 44.7758 35.4008 45.0282C37.6237 45.9275 39.9895 46.1033 42.5903 46.0307C42.6301 45.1673 42.6852 44.5001 42.6879 43.8329C42.714 37.2818 42.6791 30.7298 42.7695 24.18C42.8285 19.9115 43.0427 15.6483 43.2353 11.3846C43.3075 9.80458 43.5164 8.23484 43.6782 6.48977L43.6785 6.49212ZM65.3904 21.7917L65.3791 22.2096C65.8694 22.4324 66.3489 22.6788 66.8503 22.8684C67.7031 23.19 68.5977 23.4088 69.4197 23.7878C70.8514 24.4511 71.2998 25.4521 70.9545 27.0065C70.6764 28.2597 69.9624 29.2055 68.742 29.6274C67.9842 29.8661 67.2013 30.0163 66.409 30.0751C64.6527 30.2497 62.8806 30.2918 61.1343 30.5326C60.3574 30.668 59.6195 30.9719 58.9726 31.423C58.3946 31.8084 58.4447 32.4521 59.0942 32.8038C59.6869 33.1438 60.3282 33.3911 60.9958 33.5371C63.0644 33.9261 65.1503 34.2215 67.2267 34.5722C68.4753 34.7832 69.6808 35.1251 70.6218 36.0448C71.9207 37.314 71.8749 38.9389 70.421 40.0105C69.758 40.4464 69.0351 40.7831 68.275 41.0107C67.6895 41.2173 67.0415 41.2361 66.4377 41.3988C64.726 41.8608 64.3458 43.0585 65.3677 44.4731C65.5502 44.7595 65.8049 44.9931 66.1062 45.1498C66.4076 45.3066 66.745 45.3812 67.0844 45.3661C68.5653 45.359 70.0475 45.425 71.5274 45.3901C72.6445 45.3632 73.7592 45.2261 74.9763 45.1304C76.5624 32.0718 75.9971 19.1681 76.1183 6.1035C73.4968 6.21354 71.0839 6.31486 68.5253 6.4208C68.6278 6.84763 68.6938 7.10925 68.7527 7.37225C69.1851 9.29153 68.609 10.6131 66.8487 11.4329C66.0705 11.7828 65.2488 12.0266 64.4057 12.1578C62.5516 12.4657 60.6772 12.6486 58.8212 12.9447C57.9808 13.0788 57.1632 13.3615 56.3351 13.5766C57.5543 14.5841 58.8172 14.6958 60.1339 14.6327C62.1244 14.5373 64.1188 14.3993 66.1079 14.4446C67.7632 14.4822 69.417 14.7641 70.7349 15.933C72.4019 17.4113 72.1722 19.4182 70.1433 20.3467C69.1776 20.7887 68.0684 20.9115 67.0336 21.2091C66.4753 21.3689 65.9371 21.5937 65.3902 21.7894L65.3904 21.7917Z" fill="black"/>
</svg>
