<svg width="200" height="200" viewBox="0 0 200 200" fill="none" xmlns="http://www.w3.org/2000/svg">
<g clip-path="url(#clip0_5966_13656)">
<path d="M107.542 109.52V132.173C107.828 132.037 108.095 131.864 108.334 131.657C116.369 121.753 127.027 116.669 139.398 114.713C141.06 114.45 142.712 114.127 144.372 113.844C147.493 113.318 149.526 114.687 150.163 117.861C150.784 121.182 150.687 124.599 149.881 127.88C147.68 137.655 141.61 144.606 133.541 150.004C127.473 154.144 120.628 157.009 113.421 158.426C111.59 158.773 109.702 158.818 107.471 159.037C107.522 160.551 107.46 162.066 107.286 163.571C106.915 165.593 106.37 167.58 105.656 169.508C105.433 170.125 105.005 170.648 104.443 170.988C103.881 171.328 103.219 171.464 102.568 171.375C101.863 171.344 101.191 171.067 100.669 170.593C100.146 170.118 99.8059 169.475 99.7072 168.777C99.2955 166.851 99.0649 164.883 98.8436 162.923C98.7834 161.936 98.7772 160.946 98.8251 159.958C96.1031 159.576 93.6266 159.427 91.2479 158.861C75.8614 155.197 64.1624 146.687 56.9999 132.385C56.1528 130.709 55.5265 128.929 55.1367 127.092C54.3479 123.249 56.1323 120.031 59.92 119.065C71.4557 116.121 82.7134 116.79 93.3115 122.627C95.5274 123.847 97.3807 125.726 99.7043 127.538C100.467 121.71 100.525 115.889 100.973 109.986C97.4803 109.58 94.2197 109.413 91.0447 108.799C77.1564 106.115 67.686 98.2896 64.138 84.3652C61.5799 74.3278 63.4164 64.6771 68.476 55.7059C71.1856 50.8452 74.7738 46.5296 79.0583 42.9784C83.9447 38.9491 89.7989 37.2035 95.777 35.7342C104.494 33.5913 113.129 34.3078 121.553 37.0287C128.261 39.1533 133.853 43.851 137.104 50.0922C142.296 59.7063 144.511 69.9754 142.298 80.775C139.364 95.0892 130.251 103.756 116.36 107.607C113.519 108.4 110.587 108.87 107.542 109.52Z" fill="#FC787D"/>
</g>
<g clip-path="url(#clip1_5966_13656)">
<path d="M101.365 104.226V126.879C101.651 126.743 101.918 126.57 102.158 126.363C110.192 116.459 120.851 111.375 133.221 109.419C134.883 109.156 136.535 108.833 138.195 108.55C141.316 108.024 143.349 109.393 143.986 112.567C144.607 115.888 144.511 119.305 143.704 122.586C141.503 132.361 135.433 139.312 127.364 144.71C121.296 148.85 114.451 151.715 107.244 153.132C105.414 153.479 103.526 153.524 101.295 153.743C101.345 155.257 101.283 156.772 101.109 158.277C100.738 160.299 100.193 162.286 99.4795 164.214C99.2562 164.831 98.8278 165.354 98.2658 165.694C97.7037 166.034 97.0421 166.17 96.3914 166.081C95.6862 166.05 95.0142 165.773 94.4916 165.299C93.9691 164.824 93.629 164.182 93.5304 163.483C93.1186 161.557 92.888 159.589 92.6668 157.629C92.6065 156.642 92.6003 155.652 92.6482 154.664C89.9262 154.282 87.4497 154.133 85.0711 153.567C69.6845 149.903 57.9855 141.393 50.823 127.091C49.9759 125.415 49.3497 123.635 48.9598 121.798C48.171 117.955 49.9554 114.737 53.7431 113.771C65.2789 110.827 76.5365 111.496 87.1346 117.333C89.3505 118.553 91.2039 120.432 93.5275 122.244C94.2902 116.416 94.3481 110.595 94.7958 104.692C91.3034 104.286 88.0428 104.119 84.8678 103.505C70.9796 100.821 61.5091 92.9957 57.9612 79.0713C55.403 69.0338 57.2395 59.3832 62.2991 50.412C65.0087 45.5512 68.5969 41.2357 72.8815 37.6844C77.7678 33.6552 83.6221 31.9096 89.6002 30.4402C98.3171 28.2973 106.952 29.0138 115.376 31.7347C122.084 33.8594 127.677 38.5571 130.927 44.7983C136.119 54.4123 138.334 64.6814 136.121 75.4811C133.187 89.7952 124.074 98.4624 110.183 102.313C107.342 103.106 104.41 103.576 101.365 104.226ZM92.2625 35.8149C83.8936 35.6927 79.8963 37.184 74.2703 43.286C67.5874 50.5319 63.6404 59.0474 63.5136 69.0008C63.3647 80.6877 68.9681 92.5729 83.7298 96.1892C93.1385 98.4954 103.027 97.8687 112.07 94.3938C121.879 90.745 127.618 83.5285 129.224 73.0995C130.481 64.9397 128.507 57.3643 125.008 50.119C121.881 43.637 116.53 39.631 109.581 38.2103C103.883 37.045 98.0408 36.5863 92.2625 35.8149ZM92.946 146.968C92.946 143.264 92.9744 139.53 92.9147 135.797C92.8392 135.218 92.5962 134.675 92.2157 134.233C90.6102 132.101 88.9196 130.033 87.324 127.894C84.9178 124.717 81.5816 122.37 77.7795 121.179C71.671 119.102 65.1799 118.397 58.7679 119.113C58.0051 119.243 57.2518 119.422 56.5127 119.652C61.5641 136.473 80.8519 147.677 92.946 146.968ZM136.851 115.629C136.251 115.555 135.647 115.527 135.043 115.546C129.124 116.342 123.383 117.734 118.142 120.737C112.397 124.031 107.341 128.078 103.993 133.935C101.839 137.529 100.888 141.716 101.279 145.888C102.154 145.947 103.031 145.941 103.905 145.872C115.59 143.935 125.409 138.632 132.66 129.189C135.682 125.341 137.175 120.511 136.851 115.629Z" fill="#111827"/>
<path d="M100.588 86.7402C100.419 88.1643 100.32 89.5398 100.081 90.8904C99.7141 92.9546 98.6653 94.0312 97.1444 94.0666C95.6559 94.1013 94.5046 93.064 94.0065 91.0433C93.6549 89.6174 93.4731 88.1475 93.2171 86.7112C91.0163 85.9523 88.8734 85.2515 86.7589 84.4604C86.0303 84.1508 85.3401 83.7577 84.7023 83.2888C83.4101 82.4201 82.8316 81.1847 83.3986 79.698C83.9997 78.1221 85.4256 78.3022 86.6946 78.564C88.8184 79.0019 90.9155 79.5677 93.4852 80.192L94.014 69.1457C92.5458 68.6824 91.318 68.3302 90.1157 67.9057C83.8966 65.7106 83.0609 60.643 85.5826 55.767C87.1237 52.7878 89.0685 51.1916 94.2509 48.5159C94.2011 47.3721 94.135 46.1194 94.0933 44.8672C94.0504 43.651 94.5248 42.4654 95.7433 42.4648C96.249 42.5163 96.7383 42.674 97.1789 42.9275C97.6195 43.181 98.0016 43.5247 98.3004 43.936C98.9844 44.9559 99.1546 46.3198 99.5467 47.536C101.606 48.4048 103.711 49.1768 105.694 50.1921C106.054 50.4097 106.367 50.6977 106.614 51.0389C106.86 51.3801 107.035 51.7675 107.129 52.178C107.331 53.3143 106.424 53.9791 105.349 54.147C103.611 54.4233 101.861 54.5989 100.008 54.83C99.9545 55.3084 99.878 55.6819 99.8769 56.0555C99.867 58.9171 99.8716 61.7787 99.8716 64.66C100.874 65.0151 101.499 65.2601 102.139 65.4575C103.27 65.8079 104.426 66.0848 105.545 66.4699C113.318 69.1451 113.271 74.8463 110.131 80.0802C108.497 82.8023 105.989 84.5576 103.105 85.7895C102.297 86.1376 101.46 86.4139 100.588 86.7402ZM100.33 70.1181V80.2001C103.044 79.3447 105.045 78.0775 106.204 75.7319C107.181 73.7523 106.833 72.5158 104.892 71.6315C103.4 71.044 101.877 70.5393 100.33 70.1198V70.1181ZM94.1154 55.9964C90.9358 57.2514 89.211 58.9599 89.5487 60.735C89.9912 63.0563 92.0391 63.1218 94.1154 63.6477V55.9964Z" fill="#111827"/>
</g>
<defs>
<clipPath id="clip0_5966_13656">
<rect width="96.1408" height="137.84" fill="white" transform="translate(54.8593 34.0693)"/>
</clipPath>
<clipPath id="clip1_5966_13656">
<rect width="96.1408" height="137.84" fill="white" transform="translate(48.6824 28.7754)"/>
</clipPath>
</defs>
</svg>
